<mxfile host="www.draw.io" modified="2020-07-20T06:54:40.686Z" agent="5.0 (Windows NT 6.1; Win64; x64) AppleWebKit/537.36 (KHTML, like Gecko) Chrome/84.0.4147.89 Safari/537.36" etag="PXE_xlomBEYgfT1CKFn4" version="13.4.4" type="github">
  <diagram id="_Qi5-8vMkDARBLpsw7g2" name="Page-1">
    <mxGraphModel dx="2514" dy="896" grid="1" gridSize="10" guides="1" tooltips="1" connect="1" arrows="1" fold="1" page="1" pageScale="1" pageWidth="850" pageHeight="1100" math="0" shadow="0">
      <root>
        <mxCell id="0" />
        <mxCell id="1" parent="0" />
        <mxCell id="d4HiScYhIK8ZEe099J1S-7" value="" style="rounded=0;whiteSpace=wrap;html=1;strokeColor=#CCCCCC;" vertex="1" parent="1">
          <mxGeometry x="20" y="710" width="920" height="310" as="geometry" />
        </mxCell>
        <mxCell id="d4HiScYhIK8ZEe099J1S-8" value="Database server" style="rounded=0;whiteSpace=wrap;html=1;strokeColor=#CCCCCC;" vertex="1" parent="1">
          <mxGeometry x="20" y="710" width="120" height="40" as="geometry" />
        </mxCell>
        <mxCell id="d4HiScYhIK8ZEe099J1S-5" value="" style="rounded=0;whiteSpace=wrap;html=1;strokeColor=#CCCCCC;" vertex="1" parent="1">
          <mxGeometry x="1060" y="210" width="270" height="440" as="geometry" />
        </mxCell>
        <mxCell id="d4HiScYhIK8ZEe099J1S-6" value="Kettle server" style="rounded=0;whiteSpace=wrap;html=1;strokeColor=#CCCCCC;" vertex="1" parent="1">
          <mxGeometry x="1060" y="210" width="120" height="40" as="geometry" />
        </mxCell>
        <mxCell id="d4HiScYhIK8ZEe099J1S-3" value="" style="rounded=0;whiteSpace=wrap;html=1;strokeColor=#CCCCCC;" vertex="1" parent="1">
          <mxGeometry x="670" y="210" width="270" height="440" as="geometry" />
        </mxCell>
        <mxCell id="fq4dfgVjbXa0ldg3vMH8-20" value="" style="rounded=0;whiteSpace=wrap;html=1;strokeColor=#FFB570;" parent="1" vertex="1">
          <mxGeometry x="-285" y="345" width="160" height="50" as="geometry" />
        </mxCell>
        <mxCell id="fq4dfgVjbXa0ldg3vMH8-18" value="" style="rounded=0;whiteSpace=wrap;html=1;strokeColor=#CCCCCC;" parent="1" vertex="1">
          <mxGeometry x="20" y="210" width="610" height="440" as="geometry" />
        </mxCell>
        <mxCell id="fq4dfgVjbXa0ldg3vMH8-45" style="edgeStyle=orthogonalEdgeStyle;rounded=0;orthogonalLoop=1;jettySize=auto;html=1;entryX=0.5;entryY=0;entryDx=0;entryDy=0;curved=1;" parent="1" source="fq4dfgVjbXa0ldg3vMH8-1" target="fq4dfgVjbXa0ldg3vMH8-34" edge="1">
          <mxGeometry relative="1" as="geometry" />
        </mxCell>
        <mxCell id="fq4dfgVjbXa0ldg3vMH8-1" value="" style="rounded=0;whiteSpace=wrap;html=1;" parent="1" vertex="1">
          <mxGeometry x="60" y="280" width="200" height="180" as="geometry" />
        </mxCell>
        <mxCell id="fq4dfgVjbXa0ldg3vMH8-2" value="FastnetBridge" style="rounded=0;whiteSpace=wrap;html=1;fillColor=#bac8d3;strokeColor=#23445d;" parent="1" vertex="1">
          <mxGeometry x="60" y="280" width="90" height="20" as="geometry" />
        </mxCell>
        <mxCell id="fq4dfgVjbXa0ldg3vMH8-3" value="PolicyTransfer webservice" style="rounded=0;whiteSpace=wrap;html=1;fillColor=#f5f5f5;strokeColor=#666666;fontColor=#333333;" parent="1" vertex="1">
          <mxGeometry x="90" y="330" width="130" height="30" as="geometry" />
        </mxCell>
        <mxCell id="fq4dfgVjbXa0ldg3vMH8-29" style="edgeStyle=orthogonalEdgeStyle;rounded=0;orthogonalLoop=1;jettySize=auto;html=1;entryX=0;entryY=0.5;entryDx=0;entryDy=0;" parent="1" source="fq4dfgVjbXa0ldg3vMH8-4" target="fq4dfgVjbXa0ldg3vMH8-10" edge="1">
          <mxGeometry relative="1" as="geometry" />
        </mxCell>
        <mxCell id="fq4dfgVjbXa0ldg3vMH8-4" value="" style="rounded=0;whiteSpace=wrap;html=1;" parent="1" vertex="1">
          <mxGeometry x="380" y="280" width="200" height="280" as="geometry" />
        </mxCell>
        <mxCell id="fq4dfgVjbXa0ldg3vMH8-5" value="Fastnet3-Web" style="rounded=0;whiteSpace=wrap;html=1;fillColor=#bac8d3;strokeColor=#23445d;" parent="1" vertex="1">
          <mxGeometry x="380" y="280" width="90" height="20" as="geometry" />
        </mxCell>
        <mxCell id="fq4dfgVjbXa0ldg3vMH8-6" value="Webportal" style="rounded=0;whiteSpace=wrap;html=1;fillColor=#f5f5f5;strokeColor=#666666;fontColor=#333333;" parent="1" vertex="1">
          <mxGeometry x="410" y="330" width="130" height="30" as="geometry" />
        </mxCell>
        <mxCell id="fq4dfgVjbXa0ldg3vMH8-7" value="Check-in policy" style="rounded=0;whiteSpace=wrap;html=1;fillColor=#f5f5f5;strokeColor=#666666;fontColor=#333333;" parent="1" vertex="1">
          <mxGeometry x="410" y="370" width="130" height="30" as="geometry" />
        </mxCell>
        <mxCell id="fq4dfgVjbXa0ldg3vMH8-8" value="Sale policy" style="rounded=0;whiteSpace=wrap;html=1;fillColor=#f5f5f5;strokeColor=#666666;fontColor=#333333;" parent="1" vertex="1">
          <mxGeometry x="410" y="410" width="130" height="30" as="geometry" />
        </mxCell>
        <mxCell id="fq4dfgVjbXa0ldg3vMH8-9" value="Admin setting" style="rounded=0;whiteSpace=wrap;html=1;fillColor=#f5f5f5;strokeColor=#666666;fontColor=#333333;" parent="1" vertex="1">
          <mxGeometry x="410" y="450" width="130" height="30" as="geometry" />
        </mxCell>
        <mxCell id="fq4dfgVjbXa0ldg3vMH8-30" style="edgeStyle=orthogonalEdgeStyle;rounded=0;orthogonalLoop=1;jettySize=auto;html=1;" parent="1" source="fq4dfgVjbXa0ldg3vMH8-10" target="fq4dfgVjbXa0ldg3vMH8-4" edge="1">
          <mxGeometry relative="1" as="geometry">
            <Array as="points">
              <mxPoint x="640" y="460" />
              <mxPoint x="640" y="460" />
            </Array>
          </mxGeometry>
        </mxCell>
        <mxCell id="fq4dfgVjbXa0ldg3vMH8-10" value="" style="rounded=0;whiteSpace=wrap;html=1;" parent="1" vertex="1">
          <mxGeometry x="700" y="280" width="200" height="280" as="geometry" />
        </mxCell>
        <mxCell id="fq4dfgVjbXa0ldg3vMH8-11" value="Fastnet3-App" style="rounded=0;whiteSpace=wrap;html=1;fillColor=#bac8d3;strokeColor=#23445d;" parent="1" vertex="1">
          <mxGeometry x="700" y="280" width="90" height="20" as="geometry" />
        </mxCell>
        <mxCell id="fq4dfgVjbXa0ldg3vMH8-12" value="Reporting" style="rounded=0;whiteSpace=wrap;html=1;fillColor=#f5f5f5;strokeColor=#666666;fontColor=#333333;" parent="1" vertex="1">
          <mxGeometry x="730" y="330" width="130" height="30" as="geometry" />
        </mxCell>
        <mxCell id="fq4dfgVjbXa0ldg3vMH8-13" value="Batch job" style="rounded=0;whiteSpace=wrap;html=1;fillColor=#f5f5f5;strokeColor=#666666;fontColor=#333333;" parent="1" vertex="1">
          <mxGeometry x="730" y="370" width="130" height="30" as="geometry" />
        </mxCell>
        <mxCell id="fq4dfgVjbXa0ldg3vMH8-14" value="Schedule job" style="rounded=0;whiteSpace=wrap;html=1;fillColor=#f5f5f5;strokeColor=#666666;fontColor=#333333;" parent="1" vertex="1">
          <mxGeometry x="730" y="410" width="130" height="30" as="geometry" />
        </mxCell>
        <mxCell id="fq4dfgVjbXa0ldg3vMH8-16" value="Webservice" style="rounded=0;whiteSpace=wrap;html=1;fillColor=#f5f5f5;strokeColor=#666666;fontColor=#333333;" parent="1" vertex="1">
          <mxGeometry x="410" y="490" width="130" height="30" as="geometry" />
        </mxCell>
        <mxCell id="fq4dfgVjbXa0ldg3vMH8-23" style="edgeStyle=orthogonalEdgeStyle;rounded=0;orthogonalLoop=1;jettySize=auto;html=1;" parent="1" source="fq4dfgVjbXa0ldg3vMH8-20" target="fq4dfgVjbXa0ldg3vMH8-1" edge="1">
          <mxGeometry relative="1" as="geometry" />
        </mxCell>
        <mxCell id="fq4dfgVjbXa0ldg3vMH8-24" value="Policy" style="edgeLabel;html=1;align=center;verticalAlign=middle;resizable=0;points=[];" parent="fq4dfgVjbXa0ldg3vMH8-23" vertex="1" connectable="0">
          <mxGeometry x="0.1444" y="2" relative="1" as="geometry">
            <mxPoint x="1" as="offset" />
          </mxGeometry>
        </mxCell>
        <mxCell id="fq4dfgVjbXa0ldg3vMH8-25" value="" style="group" parent="1" vertex="1" connectable="0">
          <mxGeometry x="-285" y="345" width="160" height="50" as="geometry" />
        </mxCell>
        <mxCell id="fq4dfgVjbXa0ldg3vMH8-21" value="Emagin" style="rounded=0;whiteSpace=wrap;html=1;fillColor=#ffe6cc;strokeColor=#d79b00;" parent="fq4dfgVjbXa0ldg3vMH8-25" vertex="1">
          <mxGeometry width="90" height="20" as="geometry" />
        </mxCell>
        <mxCell id="fq4dfgVjbXa0ldg3vMH8-27" value="" style="edgeStyle=orthogonalEdgeStyle;rounded=0;orthogonalLoop=1;jettySize=auto;html=1;entryX=0.5;entryY=0;entryDx=0;entryDy=0;" parent="1" source="fq4dfgVjbXa0ldg3vMH8-26" target="fq4dfgVjbXa0ldg3vMH8-4" edge="1">
          <mxGeometry relative="1" as="geometry">
            <Array as="points">
              <mxPoint x="480" y="90" />
            </Array>
          </mxGeometry>
        </mxCell>
        <mxCell id="fq4dfgVjbXa0ldg3vMH8-26" value="Admin/Sale user/Claim user" style="shape=umlActor;verticalLabelPosition=bottom;verticalAlign=top;html=1;outlineConnect=0;strokeColor=#1A1A1A;" parent="1" vertex="1">
          <mxGeometry x="380" y="60" width="30" height="60" as="geometry" />
        </mxCell>
        <mxCell id="fq4dfgVjbXa0ldg3vMH8-56" style="edgeStyle=orthogonalEdgeStyle;curved=1;rounded=0;orthogonalLoop=1;jettySize=auto;html=1;entryX=0;entryY=0.5;entryDx=0;entryDy=0;startArrow=none;startFill=0;endArrow=classic;endFill=1;" parent="1" source="fq4dfgVjbXa0ldg3vMH8-31" target="fq4dfgVjbXa0ldg3vMH8-53" edge="1">
          <mxGeometry relative="1" as="geometry" />
        </mxCell>
        <mxCell id="fq4dfgVjbXa0ldg3vMH8-31" value="" style="rounded=0;whiteSpace=wrap;html=1;" parent="1" vertex="1">
          <mxGeometry x="1090" y="360" width="200" height="120" as="geometry" />
        </mxCell>
        <mxCell id="fq4dfgVjbXa0ldg3vMH8-32" value="Kettle job" style="rounded=0;whiteSpace=wrap;html=1;fillColor=#bac8d3;strokeColor=#23445d;" parent="1" vertex="1">
          <mxGeometry x="1090" y="360" width="90" height="20" as="geometry" />
        </mxCell>
        <mxCell id="fq4dfgVjbXa0ldg3vMH8-33" value="Daily extraction" style="rounded=0;whiteSpace=wrap;html=1;fillColor=#f5f5f5;strokeColor=#666666;fontColor=#333333;" parent="1" vertex="1">
          <mxGeometry x="1120" y="410" width="130" height="30" as="geometry" />
        </mxCell>
        <mxCell id="fq4dfgVjbXa0ldg3vMH8-47" style="edgeStyle=orthogonalEdgeStyle;curved=1;rounded=0;orthogonalLoop=1;jettySize=auto;html=1;entryX=0.25;entryY=1;entryDx=0;entryDy=0;dashed=1;" parent="1" source="fq4dfgVjbXa0ldg3vMH8-34" target="fq4dfgVjbXa0ldg3vMH8-4" edge="1">
          <mxGeometry relative="1" as="geometry" />
        </mxCell>
        <mxCell id="fq4dfgVjbXa0ldg3vMH8-34" value="db fastnetexternal&amp;nbsp;" style="shape=cylinder;whiteSpace=wrap;html=1;boundedLbl=1;backgroundOutline=1;strokeColor=#1A1A1A;" parent="1" vertex="1">
          <mxGeometry x="200" y="860" width="120" height="67.5" as="geometry" />
        </mxCell>
        <mxCell id="fq4dfgVjbXa0ldg3vMH8-49" style="edgeStyle=orthogonalEdgeStyle;curved=1;rounded=0;orthogonalLoop=1;jettySize=auto;html=1;entryX=0.75;entryY=1;entryDx=0;entryDy=0;endArrow=classic;endFill=1;startArrow=classic;startFill=1;" parent="1" source="fq4dfgVjbXa0ldg3vMH8-48" target="fq4dfgVjbXa0ldg3vMH8-4" edge="1">
          <mxGeometry relative="1" as="geometry" />
        </mxCell>
        <mxCell id="fq4dfgVjbXa0ldg3vMH8-51" style="edgeStyle=orthogonalEdgeStyle;curved=1;rounded=0;orthogonalLoop=1;jettySize=auto;html=1;startArrow=classic;startFill=1;endArrow=classic;endFill=1;" parent="1" source="fq4dfgVjbXa0ldg3vMH8-48" target="fq4dfgVjbXa0ldg3vMH8-10" edge="1">
          <mxGeometry relative="1" as="geometry" />
        </mxCell>
        <mxCell id="fq4dfgVjbXa0ldg3vMH8-52" style="edgeStyle=orthogonalEdgeStyle;curved=1;rounded=0;orthogonalLoop=1;jettySize=auto;html=1;entryX=0.451;entryY=0.994;entryDx=0;entryDy=0;entryPerimeter=0;startArrow=classic;startFill=1;endArrow=classic;endFill=1;" parent="1" source="fq4dfgVjbXa0ldg3vMH8-48" target="fq4dfgVjbXa0ldg3vMH8-31" edge="1">
          <mxGeometry relative="1" as="geometry" />
        </mxCell>
        <mxCell id="fq4dfgVjbXa0ldg3vMH8-48" value="db fastnet&amp;nbsp;" style="shape=cylinder;whiteSpace=wrap;html=1;boundedLbl=1;backgroundOutline=1;strokeColor=#1A1A1A;" parent="1" vertex="1">
          <mxGeometry x="740" y="860" width="120" height="67.5" as="geometry" />
        </mxCell>
        <mxCell id="fq4dfgVjbXa0ldg3vMH8-53" value="" style="rounded=0;whiteSpace=wrap;html=1;strokeColor=#FFB570;" parent="1" vertex="1">
          <mxGeometry x="1430" y="315" width="160" height="50" as="geometry" />
        </mxCell>
        <mxCell id="fq4dfgVjbXa0ldg3vMH8-54" value="" style="group" parent="1" vertex="1" connectable="0">
          <mxGeometry x="1430" y="280" width="160" height="50" as="geometry" />
        </mxCell>
        <mxCell id="fq4dfgVjbXa0ldg3vMH8-55" value="Partner&#39;s FTP" style="rounded=0;whiteSpace=wrap;html=1;fillColor=#ffe6cc;strokeColor=#d79b00;" parent="fq4dfgVjbXa0ldg3vMH8-54" vertex="1">
          <mxGeometry y="35" width="90" height="20" as="geometry" />
        </mxCell>
        <mxCell id="d4HiScYhIK8ZEe099J1S-2" value="Web" style="rounded=0;whiteSpace=wrap;html=1;strokeColor=#CCCCCC;" vertex="1" parent="1">
          <mxGeometry x="20" y="210" width="120" height="40" as="geometry" />
        </mxCell>
        <mxCell id="d4HiScYhIK8ZEe099J1S-4" value="App" style="rounded=0;whiteSpace=wrap;html=1;strokeColor=#CCCCCC;" vertex="1" parent="1">
          <mxGeometry x="670" y="210" width="120" height="40" as="geometry" />
        </mxCell>
      </root>
    </mxGraphModel>
  </diagram>
</mxfile>
